<?xml version="1.0" encoding="utf-8"?>
<!-- Svg Vector Icons : http://www.onlinewebfonts.com/icon -->
<!DOCTYPE svg PUBLIC "-//W3C//DTD SVG 1.1//EN" "http://www.w3.org/Graphics/SVG/1.1/DTD/svg11.dtd">
<svg version="1.1" xmlns="http://www.w3.org/2000/svg" xmlns:xlink="http://www.w3.org/1999/xlink" x="0px" y="0px" viewBox="0 0 1000 1000" enable-background="new 0 0 1000 1000" xml:space="preserve">
<metadata> Svg Vector Icons : http://www.onlinewebfonts.com/icon </metadata>
<g><path d="M593.4,500c0-13.1-5.2-25.6-14.5-34.9L138.3,24.5C119,5.2,87.8,5.2,68.5,24.5s-19.3,50.5,0,69.8L474.3,500L68.5,905.8c-19.3,19.3-19.3,50.5,0,69.8c9.6,9.6,22.3,14.5,34.9,14.5c12.6,0,25.3-4.8,34.9-14.5L579,534.9C588.2,525.6,593.4,513.1,593.4,500z M931.5,465.1L490.8,24.5c-19.3-19.3-50.5-19.3-69.8,0c-19.3,19.3-19.3,50.5,0,69.8L826.8,500L421,905.8c-19.3,19.3-19.3,50.5,0,69.8c9.6,9.6,22.3,14.5,34.9,14.5c12.6,0,25.3-4.8,34.9-14.5l440.7-440.7C950.8,515.6,950.8,484.4,931.5,465.1z"/></g>
</svg>